PathFileType  4	(X/Y/Z) C:\Users\antoi\Documents\MyRepositories\mobilecap\ResultsAnalysis
DataRate	CameraRate	NumFrames	NumMarkers	Units	OrigDataRate	OrigDataStartFrame	OrigNumFrames
100.0	100.0	4	51	mm	100.0	1	156
Frame#	Time	r_knee			r_shank_antsup			r_ankle			r_calc			r_5meta			r_toe			L_knee			L_shank_antsup			L_ankle			L_calc			L_5meta			L_toe			r_sh2			r_sh3			r_sh4			L_sh2			L_sh3			r_thigh1			r_thigh2			r_thigh3			r_thigh4			r_thigh5			L_thigh1			L_thigh2			L_thigh3			L_thigh4			r.ASIS			r.PSIS			L.ASIS			L.PSIS			C7			R_Shoulder			L_Shoulder			R_Sternum			L_Sternum			R_humerus			R_elbow_med			R_elbow_lat			R_forearm			R_wrist_radius			R_wrist_ulna			L_humerus			L_elbow_med			L_elbow_lat			L_forearm			L_wrist_radius			L_wrist_ulna			R_HJC			L_HJC			R_HJC_reg			L_HJC_reg			
		X1	Y1	Z1	X2	Y2	Z2	X3	Y3	Z3	X4	Y4	Z4	X5	Y5	Z5	X6	Y6	Z6	X7	Y7	Z7	X8	Y8	Z8	X9	Y9	Z9	X10	Y10	Z10	X11	Y11	Z11	X12	Y12	Z12	X13	Y13	Z13	X14	Y14	Z14	X15	Y15	Z15	X16	Y16	Z16	X17	Y17	Z17	X18	Y18	Z18	X19	Y19	Z19	X20	Y20	Z20	X21	Y21	Z21	X22	Y22	Z22	X23	Y23	Z23	X24	Y24	Z24	X25	Y25	Z25	X26	Y26	Z26	X27	Y27	Z27	X28	Y28	Z28	X29	Y29	Z29	X30	Y30	Z30	X31	Y31	Z31	X32	Y32	Z32	X33	Y33	Z33	X34	Y34	Z34	X35	Y35	Z35	X36	Y36	Z36	X37	Y37	Z37	X38	Y38	Z38	X39	Y39	Z39	X40	Y40	Z40	X41	Y41	Z41	X42	Y42	Z42	X43	Y43	Z43	X44	Y44	Z44	X45	Y45	Z45	X46	Y46	Z46	X47	Y47	Z47	X48	Y48	Z48	X49	Y49	Z49	X50	Y50	Z50	X51	Y51	Z51	

1	0.00000000	33.99775	454.24077	-123.39923	107.40032	363.11065	-144.34980	135.59439	85.37223	-177.62719	102.15512	46.92742	-231.75579	264.17605	65.06969	-158.85935	293.13889	100.09764	-197.58611	-272.97363	459.19405	-413.16150	-272.88438	347.74653	-375.04343	-474.51329	116.72187	-351.77248	-523.75993	97.50878	-299.52817	-374.79403	32.98798	-362.18136	-326.40688	45.87835	-315.37844	135.82549	255.61116	-164.26834	53.93325	338.19288	-96.53127	64.69642	229.63076	-126.37062	-326.19849	390.05136	-431.16666	-389.43503	287.38191	-430.31373	22.33730	766.22842	-126.17133	62.13615	662.15314	-130.09620	26.16906	623.70139	-86.74947	-70.32059	728.79861	-76.43260	-28.56740	620.60995	-78.63401	-100.15158	712.99477	-447.52294	-134.65274	580.71239	-438.89820	-204.42932	743.55689	-468.99887	-242.82946	610.55562	-447.25572	0.30795	903.58189	-166.00405	-189.27567	943.95340	-214.86457	-19.15976	886.90045	-413.87947	-200.77955	946.38882	-329.46109	-113.58677	1392.91710	-282.04905	-82.04901	1344.40196	-125.78937	-33.21724	1360.47747	-429.78358	-1.67007	1317.99378	-251.66774	5.51751	1316.39124	-295.04526	-104.19554	1222.40454	-55.25699	-220.92776	1050.73743	-108.25098	-211.34077	1059.39726	-33.65374	-190.49989	935.77045	2.57759	-179.40798	834.16889	13.62695	-218.42310	834.95674	25.37069	-4.18398	1214.86204	-487.72565	-79.42698	1019.84561	-467.73923	-39.05104	1031.99770	-527.65422	38.54651	963.37577	-511.09717	106.95470	864.52783	-459.90385	94.05870	846.26852	-484.11849	-92.81786	831.82570	-179.06245	-107.42684	819.45921	-367.46961	-73.03311	821.21996	-195.12520	-89.45746	824.69742	-358.73585	
2	0.01000000	42.70718	455.26193	-122.85863	114.16334	362.62432	-142.91954	138.58175	84.25949	-177.24750	103.94722	48.27468	-232.06755	265.82176	59.96943	-157.51660	296.38124	94.28515	-196.16584	-261.11335	458.61091	-413.38753	-263.44866	346.92587	-375.45161	-470.56738	120.71815	-353.25099	-520.33061	103.32882	-301.09824	-373.81349	32.98820	-362.35476	-324.93158	45.55587	-315.71165	141.26490	254.84503	-162.95173	59.95465	338.22862	-95.59630	69.63261	229.64916	-125.55796	-315.17525	390.50786	-431.67588	-380.87800	289.18857	-431.34648	34.33980	767.95815	-127.38965	73.36302	663.43672	-131.01179	37.76001	625.48026	-86.71108	-58.00056	731.69544	-76.31682	-17.18068	623.15050	-77.96989	-87.88944	711.84434	-447.51136	-122.35292	579.77461	-438.73257	-191.88273	742.41004	-469.38264	-230.46007	609.47332	-447.36689	12.75178	905.22664	-167.15428	-177.03955	945.13475	-217.03659	-6.15291	885.66721	-414.54725	-187.98082	945.98858	-331.67521	-100.87750	1392.88043	-276.71509	-70.52952	1341.88919	-121.22170	-19.16696	1362.88193	-424.44661	10.80664	1317.53533	-246.76984	18.45690	1316.70927	-290.05677	-92.64700	1219.10154	-52.39995	-208.63372	1047.63350	-107.69554	-199.48256	1055.66670	-32.92693	-177.90545	931.77744	2.30534	-166.26788	830.18438	12.49878	-205.09052	830.53134	24.04223	8.21159	1217.44167	-483.96065	-70.68534	1023.60614	-466.16390	-29.95290	1035.67273	-525.99166	45.57628	964.52806	-510.82778	110.78345	862.47848	-461.77622	97.00595	845.21176	-486.47768	-80.50046	833.38865	-179.52773	-94.51461	818.72291	-367.78890	-60.84566	822.88234	-195.44149	-76.45174	824.10324	-358.94608	
3	0.02000000	51.38339	456.30954	-122.35219	120.93551	362.25337	-141.74922	141.39139	83.32964	-176.88573	105.64509	49.52880	-232.38357	267.40938	55.24836	-156.38419	299.42110	88.73456	-195.03578	-248.87839	457.87216	-413.65880	-253.65399	346.00461	-375.85934	-466.37902	124.82644	-354.76622	-516.67090	109.34700	-302.71931	-372.74379	33.06016	-362.56499	-323.46531	45.24561	-316.03262	146.67917	254.18380	-161.88033	66.17526	338.40326	-94.69321	74.68282	229.78800	-124.70951	-303.79744	390.83233	-432.23444	-371.95930	290.93553	-432.41876	46.33433	769.72242	-128.54912	84.60471	664.76139	-131.90175	49.28763	627.28223	-86.75406	-45.68779	734.57054	-76.23842	-5.83019	625.67626	-77.41639	-75.53961	710.75265	-447.45821	-109.85417	578.78624	-438.59350	-179.29684	741.20421	-469.71495	-217.91153	608.28152	-447.47252	25.17170	906.92965	-168.27308	-164.82682	946.35617	-219.21764	6.79524	884.52384	-415.18959	-175.19330	945.69244	-333.89593	-88.18523	1392.86721	-271.35171	-59.00382	1339.39631	-116.65580	-5.14522	1365.36377	-419.05272	23.27967	1317.08362	-241.85319	31.35903	1317.04837	-285.04995	-81.11082	1215.83003	-49.54235	-196.31432	1044.56626	-107.14904	-187.61226	1051.97046	-32.21814	-165.25676	927.84604	2.02824	-153.03335	826.25841	11.38175	-191.66472	826.15324	22.74112	20.59838	1220.12597	-480.19971	-61.96167	1027.54026	-464.60228	-20.87696	1039.51009	-524.35089	52.51977	965.86682	-510.59170	114.41367	860.61629	-463.76478	99.85336	844.36845	-488.95220	-68.22775	835.01218	-180.00100	-81.63670	818.07791	-368.10977	-48.68989	824.54391	-195.77813	-63.46168	823.60077	-359.18090	
4	0.03000000	59.96565	457.40691	-121.92372	127.70884	362.08072	-141.04198	143.91926	82.69348	-176.58827	107.17138	50.61590	-232.70431	268.88545	51.20508	-155.61481	302.10688	83.66261	-194.40865	-235.95879	456.85192	-414.01471	-243.21443	344.90217	-376.27413	-461.73345	129.14891	-356.34280	-512.57247	115.74495	-304.42662	-371.50715	33.27524	-362.84108	-322.02939	44.94589	-316.32872	152.03159	253.70225	-161.24215	72.71128	338.81891	-93.87536	79.90282	230.13607	-123.83130	-291.76789	390.92042	-432.88491	-362.38619	292.58218	-433.55732	58.31204	771.52487	-129.60878	95.85457	666.12988	-132.74367	60.67027	629.10137	-86.93851	-33.41142	737.40191	-76.23755	5.41196	628.16533	-77.06479	-63.03013	709.76066	-447.33830	-96.98317	577.72300	-438.50146	-166.65124	739.89429	-469.94015	-205.03131	606.88858	-447.56898	37.53191	908.72355	-169.32936	-152.65238	947.64910	-221.40275	19.63536	883.54722	-415.78191	-162.43030	945.58363	-336.11925	-75.53059	1392.90076	-265.94494	-47.47183	1336.94219	-112.09727	8.81758	1367.97355	-413.56210	35.73978	1316.65333	-236.90776	44.19398	1317.42996	-280.01495	-69.59269	1212.61407	-46.68864	-183.94540	1041.56063	-106.61815	-175.71669	1048.33347	-31.54171	-152.51349	924.01718	1.74287	-139.63301	822.44067	10.30285	-178.08631	821.86634	21.48519	32.96099	1222.99088	-476.45442	-53.27338	1031.77726	-463.07387	-11.84943	1043.63162	-522.75912	59.31717	967.53457	-510.42312	117.69135	859.09859	-465.96096	102.51601	843.91855	-491.63131	-56.04483	836.73466	-180.48639	-68.82810	817.60049	-368.43290	-36.59913	826.20591	-196.14210	-50.51900	823.26622	-359.44922	
